{
	"patcher" : 	{
		"fileversion" : 1,
		"appversion" : 		{
			"major" : 6,
			"minor" : 1,
			"revision" : 3,
			"architecture" : "x86"
		}
,
		"rect" : [ 140.0, 344.0, 762.0, 325.0 ],
		"bglocked" : 0,
		"openinpresentation" : 0,
		"default_fontsize" : 12.0,
		"default_fontface" : 0,
		"default_fontname" : "Arial",
		"gridonopen" : 0,
		"gridsize" : [ 15.0, 15.0 ],
		"gridsnaponopen" : 0,
		"statusbarvisible" : 0,
		"toolbarvisible" : 1,
		"boxanimatetime" : 200,
		"imprint" : 0,
		"enablehscroll" : 1,
		"enablevscroll" : 1,
		"devicewidth" : 0.0,
		"description" : "",
		"digest" : "",
		"tags" : "",
		"boxes" : [ 			{
				"box" : 				{
					"color" : [ 1.0, 0.501961, 0.0, 1.0 ],
					"fontname" : "Arial",
					"fontsize" : 12.0,
					"id" : "obj-15",
					"maxclass" : "newobj",
					"numinlets" : 1,
					"numoutlets" : 2,
					"outlettype" : [ "jit_gl_texture", "" ],
					"patcher" : 					{
						"fileversion" : 1,
						"appversion" : 						{
							"major" : 6,
							"minor" : 1,
							"revision" : 3,
							"architecture" : "x86"
						}
,
						"rect" : [ 316.0, 627.0, 350.0, 422.0 ],
						"bgcolor" : [ 0.9, 0.9, 0.9, 1.0 ],
						"bglocked" : 0,
						"openinpresentation" : 0,
						"default_fontsize" : 12.0,
						"default_fontface" : 0,
						"default_fontname" : "Arial",
						"gridonopen" : 0,
						"gridsize" : [ 15.0, 15.0 ],
						"gridsnaponopen" : 0,
						"statusbarvisible" : 2,
						"toolbarvisible" : 1,
						"boxanimatetime" : 200,
						"imprint" : 0,
						"enablehscroll" : 1,
						"enablevscroll" : 1,
						"devicewidth" : 0.0,
						"description" : "",
						"digest" : "",
						"tags" : "",
						"boxes" : [ 							{
								"box" : 								{
									"fontname" : "Arial",
									"fontsize" : 12.0,
									"id" : "obj-1",
									"maxclass" : "newobj",
									"numinlets" : 4,
									"numoutlets" : 1,
									"outlettype" : [ "" ],
									"patching_rect" : [ 75.0, 285.0, 73.0, 20.0 ],
									"text" : "vec 0 0 0 1."
								}

							}
, 							{
								"box" : 								{
									"fontname" : "Arial",
									"fontsize" : 12.0,
									"id" : "obj-129",
									"maxclass" : "newobj",
									"numinlets" : 1,
									"numoutlets" : 1,
									"outlettype" : [ "" ],
									"patching_rect" : [ 75.0, 150.0, 35.0, 20.0 ],
									"text" : "* 10."
								}

							}
, 							{
								"box" : 								{
									"fontname" : "Arial",
									"fontsize" : 12.0,
									"id" : "obj-128",
									"maxclass" : "newobj",
									"numinlets" : 1,
									"numoutlets" : 1,
									"outlettype" : [ "" ],
									"patching_rect" : [ 75.0, 210.0, 35.0, 20.0 ],
									"text" : "* 0.5"
								}

							}
, 							{
								"box" : 								{
									"fontname" : "Arial",
									"fontsize" : 12.0,
									"id" : "obj-127",
									"maxclass" : "newobj",
									"numinlets" : 1,
									"numoutlets" : 1,
									"outlettype" : [ "" ],
									"patching_rect" : [ 75.0, 240.0, 38.0, 20.0 ],
									"text" : "+ 0.5"
								}

							}
, 							{
								"box" : 								{
									"fontname" : "Arial",
									"fontsize" : 12.0,
									"id" : "obj-126",
									"maxclass" : "newobj",
									"numinlets" : 1,
									"numoutlets" : 0,
									"patching_rect" : [ 75.0, 315.0, 37.0, 20.0 ],
									"text" : "out 1"
								}

							}
, 							{
								"box" : 								{
									"fontname" : "Arial",
									"fontsize" : 12.0,
									"id" : "obj-125",
									"maxclass" : "newobj",
									"numinlets" : 0,
									"numoutlets" : 1,
									"outlettype" : [ "" ],
									"patching_rect" : [ 75.0, 120.0, 38.0, 20.0 ],
									"text" : "norm"
								}

							}
, 							{
								"box" : 								{
									"color" : [ 1.0, 0.501961, 0.0, 1.0 ],
									"fontname" : "Arial",
									"fontsize" : 12.0,
									"id" : "obj-124",
									"maxclass" : "newobj",
									"numinlets" : 1,
									"numoutlets" : 1,
									"outlettype" : [ "" ],
									"patcher" : 									{
										"fileversion" : 1,
										"appversion" : 										{
											"major" : 6,
											"minor" : 1,
											"revision" : 3,
											"architecture" : "x86"
										}
,
										"rect" : [ 44.0, 534.0, 846.0, 787.0 ],
										"bgcolor" : [ 0.9, 0.9, 0.9, 1.0 ],
										"bglocked" : 0,
										"openinpresentation" : 0,
										"default_fontsize" : 12.0,
										"default_fontface" : 0,
										"default_fontname" : "Arial",
										"gridonopen" : 0,
										"gridsize" : [ 15.0, 15.0 ],
										"gridsnaponopen" : 0,
										"statusbarvisible" : 2,
										"toolbarvisible" : 1,
										"boxanimatetime" : 200,
										"imprint" : 0,
										"enablehscroll" : 1,
										"enablevscroll" : 1,
										"devicewidth" : 0.0,
										"description" : "",
										"digest" : "",
										"tags" : "",
										"boxes" : [ 											{
												"box" : 												{
													"fontname" : "Arial",
													"fontsize" : 12.0,
													"frgb" : 0.0,
													"id" : "obj-15",
													"linecount" : 22,
													"maxclass" : "comment",
													"numinlets" : 1,
													"numoutlets" : 0,
													"patching_rect" : [ 705.0, 144.5, 421.0, 301.0 ],
													"text" : "2D Simplex noise for gen\nCopyright (C) 2013 Tomohiro Nagasaki\n\nPermission is hereby granted, free of charge, to any person obtaining a copy of this software and associated documentation files (the \"Software\"), to deal in the Software without restriction, including without limitation the rights to use, copy, modify, merge, publish, distribute, sublicense, and/or sell copies of the Software, and to permit persons to whom the Software is furnished to do so, subject to the following conditions:\n\nThe above copyright notice and this permission notice shall be included in all copies or substantial portions of the Software.\n\nTHE SOFTWARE IS PROVIDED \"AS IS\", WITHOUT WARRANTY OF ANY KIND, EXPRESS OR IMPLIED, INCLUDING BUT NOT LIMITED TO THE WARRANTIES OF MERCHANTABILITY, FITNESS FOR A PARTICULAR PURPOSE AND NONINFRINGEMENT. IN NO EVENT SHALL THE AUTHORS OR COPYRIGHT HOLDERS BE LIABLE FOR ANY CLAIM, DAMAGES OR OTHER LIABILITY, WHETHER IN AN ACTION OF CONTRACT, TORT OR OTHERWISE, ARISING FROM, OUT OF OR IN CONNECTION WITH THE SOFTWARE OR THE USE OR OTHER DEALINGS IN THE SOFTWARE."
												}

											}
, 											{
												"box" : 												{
													"fontname" : "Arial",
													"fontsize" : 12.0,
													"id" : "obj-7",
													"maxclass" : "newobj",
													"numinlets" : 2,
													"numoutlets" : 1,
													"outlettype" : [ "" ],
													"patching_rect" : [ 328.5, 330.0, 32.5, 20.0 ],
													"text" : "+"
												}

											}
, 											{
												"box" : 												{
													"fontname" : "Arial",
													"fontsize" : 12.0,
													"id" : "obj-5",
													"maxclass" : "newobj",
													"numinlets" : 2,
													"numoutlets" : 1,
													"outlettype" : [ "" ],
													"patching_rect" : [ 328.5, 285.0, 32.5, 20.0 ],
													"text" : "-"
												}

											}
, 											{
												"box" : 												{
													"fontname" : "Arial",
													"fontsize" : 12.0,
													"id" : "obj-123",
													"maxclass" : "newobj",
													"numinlets" : 0,
													"numoutlets" : 1,
													"outlettype" : [ "" ],
													"patching_rect" : [ 690.0, 1365.0, 69.0, 20.0 ],
													"text" : "r vec4_x12"
												}

											}
, 											{
												"box" : 												{
													"fontname" : "Arial",
													"fontsize" : 12.0,
													"id" : "obj-122",
													"maxclass" : "newobj",
													"numinlets" : 1,
													"numoutlets" : 0,
													"patching_rect" : [ 488.25, 660.0, 71.0, 20.0 ],
													"text" : "s vec4_x12"
												}

											}
, 											{
												"box" : 												{
													"fontname" : "Arial",
													"fontsize" : 12.0,
													"id" : "obj-121",
													"maxclass" : "newobj",
													"numinlets" : 1,
													"numoutlets" : 1,
													"outlettype" : [ "" ],
													"patching_rect" : [ 414.5, 1680.0, 42.0, 20.0 ],
													"text" : "* 130."
												}

											}
, 											{
												"box" : 												{
													"fontname" : "Arial",
													"fontsize" : 12.0,
													"id" : "obj-119",
													"maxclass" : "newobj",
													"numinlets" : 2,
													"numoutlets" : 1,
													"outlettype" : [ "" ],
													"patching_rect" : [ 414.5, 1650.0, 32.5, 20.0 ],
													"text" : "dot"
												}

											}
, 											{
												"box" : 												{
													"fontname" : "Arial",
													"fontsize" : 12.0,
													"id" : "obj-118",
													"maxclass" : "newobj",
													"numinlets" : 2,
													"numoutlets" : 1,
													"outlettype" : [ "" ],
													"patching_rect" : [ 428.0, 1605.0, 66.0, 20.0 ],
													"text" : "concat 0 0"
												}

											}
, 											{
												"box" : 												{
													"fontname" : "Arial",
													"fontsize" : 12.0,
													"id" : "obj-117",
													"maxclass" : "newobj",
													"numinlets" : 2,
													"numoutlets" : 1,
													"outlettype" : [ "" ],
													"patching_rect" : [ 629.5, 1545.0, 32.5, 20.0 ],
													"text" : "+"
												}

											}
, 											{
												"box" : 												{
													"fontname" : "Arial",
													"fontsize" : 12.0,
													"id" : "obj-114",
													"maxclass" : "newobj",
													"numinlets" : 2,
													"numoutlets" : 1,
													"outlettype" : [ "" ],
													"patching_rect" : [ 750.0, 1500.0, 32.5, 20.0 ],
													"text" : "*"
												}

											}
, 											{
												"box" : 												{
													"fontname" : "Arial",
													"fontsize" : 12.0,
													"id" : "obj-115",
													"maxclass" : "newobj",
													"numinlets" : 1,
													"numoutlets" : 1,
													"outlettype" : [ "" ],
													"patching_rect" : [ 810.5, 1455.0, 53.0, 20.0 ],
													"text" : "swiz y 3"
												}

											}
, 											{
												"box" : 												{
													"fontname" : "Arial",
													"fontsize" : 12.0,
													"id" : "obj-116",
													"maxclass" : "newobj",
													"numinlets" : 1,
													"numoutlets" : 1,
													"outlettype" : [ "" ],
													"patching_rect" : [ 750.0, 1455.0, 52.0, 20.0 ],
													"text" : "swiz y z"
												}

											}
, 											{
												"box" : 												{
													"fontname" : "Arial",
													"fontsize" : 12.0,
													"id" : "obj-113",
													"maxclass" : "newobj",
													"numinlets" : 2,
													"numoutlets" : 1,
													"outlettype" : [ "" ],
													"patching_rect" : [ 629.5, 1500.0, 32.5, 20.0 ],
													"text" : "*"
												}

											}
, 											{
												"box" : 												{
													"fontname" : "Arial",
													"fontsize" : 12.0,
													"id" : "obj-112",
													"maxclass" : "newobj",
													"numinlets" : 1,
													"numoutlets" : 1,
													"outlettype" : [ "" ],
													"patching_rect" : [ 690.0, 1455.0, 52.0, 20.0 ],
													"text" : "swiz x z"
												}

											}
, 											{
												"box" : 												{
													"fontname" : "Arial",
													"fontsize" : 12.0,
													"id" : "obj-111",
													"maxclass" : "newobj",
													"numinlets" : 1,
													"numoutlets" : 1,
													"outlettype" : [ "" ],
													"patching_rect" : [ 629.5, 1455.0, 52.0, 20.0 ],
													"text" : "swiz y z"
												}

											}
, 											{
												"box" : 												{
													"fontname" : "Arial",
													"fontsize" : 12.0,
													"frgb" : 0.0,
													"id" : "obj-110",
													"maxclass" : "comment",
													"numinlets" : 1,
													"numoutlets" : 0,
													"patching_rect" : [ 480.0, 1530.0, 32.5, 20.0 ],
													"text" : "g.x"
												}

											}
, 											{
												"box" : 												{
													"fontname" : "Arial",
													"fontsize" : 12.0,
													"id" : "obj-107",
													"maxclass" : "newobj",
													"numinlets" : 2,
													"numoutlets" : 1,
													"outlettype" : [ "" ],
													"patching_rect" : [ 428.0, 1500.0, 32.5, 20.0 ],
													"text" : "+"
												}

											}
, 											{
												"box" : 												{
													"fontname" : "Arial",
													"fontsize" : 12.0,
													"id" : "obj-106",
													"maxclass" : "newobj",
													"numinlets" : 1,
													"numoutlets" : 1,
													"outlettype" : [ "" ],
													"patching_rect" : [ 533.25, 1440.0, 43.0, 20.0 ],
													"text" : "swiz y"
												}

											}
, 											{
												"box" : 												{
													"fontname" : "Arial",
													"fontsize" : 12.0,
													"id" : "obj-105",
													"maxclass" : "newobj",
													"numinlets" : 1,
													"numoutlets" : 1,
													"outlettype" : [ "" ],
													"patching_rect" : [ 428.0, 1440.0, 43.0, 20.0 ],
													"text" : "swiz x"
												}

											}
, 											{
												"box" : 												{
													"fontname" : "Arial",
													"fontsize" : 12.0,
													"id" : "obj-104",
													"maxclass" : "newobj",
													"numinlets" : 0,
													"numoutlets" : 1,
													"outlettype" : [ "" ],
													"patching_rect" : [ 428.0, 1380.0, 63.0, 20.0 ],
													"text" : "r vec2_x0"
												}

											}
, 											{
												"box" : 												{
													"fontname" : "Arial",
													"fontsize" : 12.0,
													"id" : "obj-102",
													"maxclass" : "newobj",
													"numinlets" : 2,
													"numoutlets" : 1,
													"outlettype" : [ "" ],
													"patching_rect" : [ 480.0, 1470.0, 32.5, 20.0 ],
													"text" : "*"
												}

											}
, 											{
												"box" : 												{
													"fontname" : "Arial",
													"fontsize" : 12.0,
													"id" : "obj-103",
													"maxclass" : "newobj",
													"numinlets" : 1,
													"numoutlets" : 1,
													"outlettype" : [ "" ],
													"patching_rect" : [ 480.0, 1440.0, 43.0, 20.0 ],
													"text" : "swiz x"
												}

											}
, 											{
												"box" : 												{
													"fontname" : "Arial",
													"fontsize" : 12.0,
													"id" : "obj-101",
													"maxclass" : "newobj",
													"numinlets" : 2,
													"numoutlets" : 1,
													"outlettype" : [ "" ],
													"patching_rect" : [ 378.0, 1470.0, 32.5, 20.0 ],
													"text" : "*"
												}

											}
, 											{
												"box" : 												{
													"fontname" : "Arial",
													"fontsize" : 12.0,
													"id" : "obj-100",
													"maxclass" : "newobj",
													"numinlets" : 1,
													"numoutlets" : 1,
													"outlettype" : [ "" ],
													"patching_rect" : [ 378.0, 1440.0, 43.0, 20.0 ],
													"text" : "swiz x"
												}

											}
, 											{
												"box" : 												{
													"fontname" : "Arial",
													"fontsize" : 12.0,
													"id" : "obj-99",
													"maxclass" : "newobj",
													"numinlets" : 0,
													"numoutlets" : 1,
													"outlettype" : [ "" ],
													"patching_rect" : [ 285.0, 1575.0, 60.0, 20.0 ],
													"text" : "r vec3_m"
												}

											}
, 											{
												"box" : 												{
													"fontname" : "Arial",
													"fontsize" : 12.0,
													"id" : "obj-98",
													"maxclass" : "newobj",
													"numinlets" : 1,
													"numoutlets" : 0,
													"patching_rect" : [ 538.5, 1155.0, 62.0, 20.0 ],
													"text" : "s vec3_m"
												}

											}
, 											{
												"box" : 												{
													"fontname" : "Arial",
													"fontsize" : 12.0,
													"id" : "obj-97",
													"maxclass" : "newobj",
													"numinlets" : 2,
													"numoutlets" : 1,
													"outlettype" : [ "" ],
													"patching_rect" : [ 256.625, 1605.0, 32.5, 20.0 ],
													"text" : "*"
												}

											}
, 											{
												"box" : 												{
													"fontname" : "Arial",
													"fontsize" : 12.0,
													"id" : "obj-96",
													"maxclass" : "newobj",
													"numinlets" : 1,
													"numoutlets" : 1,
													"outlettype" : [ "" ],
													"patching_rect" : [ 256.625, 1545.0, 71.0, 20.0 ],
													"text" : "!- 1.792843"
												}

											}
, 											{
												"box" : 												{
													"fontname" : "Arial",
													"fontsize" : 12.0,
													"id" : "obj-95",
													"maxclass" : "newobj",
													"numinlets" : 1,
													"numoutlets" : 1,
													"outlettype" : [ "" ],
													"patching_rect" : [ 256.625, 1515.0, 69.0, 20.0 ],
													"text" : "* 0.853735"
												}

											}
, 											{
												"box" : 												{
													"fontname" : "Arial",
													"fontsize" : 12.0,
													"id" : "obj-94",
													"maxclass" : "newobj",
													"numinlets" : 2,
													"numoutlets" : 1,
													"outlettype" : [ "" ],
													"patching_rect" : [ 256.625, 1485.0, 32.5, 20.0 ],
													"text" : "+"
												}

											}
, 											{
												"box" : 												{
													"fontname" : "Arial",
													"fontsize" : 12.0,
													"id" : "obj-93",
													"maxclass" : "newobj",
													"numinlets" : 2,
													"numoutlets" : 1,
													"outlettype" : [ "" ],
													"patching_rect" : [ 300.75, 1440.0, 32.5, 20.0 ],
													"text" : "*"
												}

											}
, 											{
												"box" : 												{
													"fontname" : "Arial",
													"fontsize" : 12.0,
													"id" : "obj-92",
													"maxclass" : "newobj",
													"numinlets" : 2,
													"numoutlets" : 1,
													"outlettype" : [ "" ],
													"patching_rect" : [ 256.625, 1440.0, 32.5, 20.0 ],
													"text" : "*"
												}

											}
, 											{
												"box" : 												{
													"fontname" : "Arial",
													"fontsize" : 12.0,
													"frgb" : 0.0,
													"id" : "obj-91",
													"maxclass" : "comment",
													"numinlets" : 1,
													"numoutlets" : 0,
													"patching_rect" : [ 405.0, 1305.0, 56.0, 20.0 ],
													"text" : "vec3 h"
												}

											}
, 											{
												"box" : 												{
													"fontname" : "Arial",
													"fontsize" : 12.0,
													"frgb" : 0.0,
													"id" : "obj-90",
													"maxclass" : "comment",
													"numinlets" : 1,
													"numoutlets" : 0,
													"patching_rect" : [ 202.5, 1380.0, 55.25, 20.0 ],
													"text" : "vec3 a0"
												}

											}
, 											{
												"box" : 												{
													"fontname" : "Arial",
													"fontsize" : 12.0,
													"frgb" : 0.0,
													"id" : "obj-89",
													"maxclass" : "comment",
													"numinlets" : 1,
													"numoutlets" : 0,
													"patching_rect" : [ 273.25, 1305.0, 56.0, 20.0 ],
													"text" : "vec3 ox"
												}

											}
, 											{
												"box" : 												{
													"fontname" : "Arial",
													"fontsize" : 12.0,
													"frgb" : 0.0,
													"id" : "obj-88",
													"maxclass" : "comment",
													"numinlets" : 1,
													"numoutlets" : 0,
													"patching_rect" : [ 210.0, 1200.0, 47.75, 20.0 ],
													"text" : "vec3 x"
												}

											}
, 											{
												"box" : 												{
													"fontname" : "Arial",
													"fontsize" : 12.0,
													"id" : "obj-87",
													"maxclass" : "newobj",
													"numinlets" : 2,
													"numoutlets" : 1,
													"outlettype" : [ "" ],
													"patching_rect" : [ 256.625, 1380.0, 32.5, 20.0 ],
													"text" : "-"
												}

											}
, 											{
												"box" : 												{
													"fontname" : "Arial",
													"fontsize" : 12.0,
													"id" : "obj-86",
													"maxclass" : "newobj",
													"numinlets" : 1,
													"numoutlets" : 1,
													"outlettype" : [ "" ],
													"patching_rect" : [ 319.0, 1305.0, 34.0, 20.0 ],
													"text" : "floor"
												}

											}
, 											{
												"box" : 												{
													"fontname" : "Arial",
													"fontsize" : 12.0,
													"id" : "obj-85",
													"maxclass" : "newobj",
													"numinlets" : 1,
													"numoutlets" : 1,
													"outlettype" : [ "" ],
													"patching_rect" : [ 319.0, 1275.0, 38.0, 20.0 ],
													"text" : "+ 0.5"
												}

											}
, 											{
												"box" : 												{
													"fontname" : "Arial",
													"fontsize" : 12.0,
													"id" : "obj-84",
													"maxclass" : "newobj",
													"numinlets" : 1,
													"numoutlets" : 1,
													"outlettype" : [ "" ],
													"patching_rect" : [ 366.0, 1305.0, 35.0, 20.0 ],
													"text" : "- 0.5"
												}

											}
, 											{
												"box" : 												{
													"fontname" : "Arial",
													"fontsize" : 12.0,
													"id" : "obj-83",
													"maxclass" : "newobj",
													"numinlets" : 1,
													"numoutlets" : 1,
													"outlettype" : [ "" ],
													"patching_rect" : [ 366.0, 1275.0, 30.0, 20.0 ],
													"text" : "abs"
												}

											}
, 											{
												"box" : 												{
													"fontname" : "Arial",
													"fontsize" : 12.0,
													"id" : "obj-82",
													"maxclass" : "newobj",
													"numinlets" : 1,
													"numoutlets" : 1,
													"outlettype" : [ "" ],
													"patching_rect" : [ 256.625, 1200.0, 28.0, 20.0 ],
													"text" : "- 1."
												}

											}
, 											{
												"box" : 												{
													"fontname" : "Arial",
													"fontsize" : 12.0,
													"id" : "obj-81",
													"maxclass" : "newobj",
													"numinlets" : 1,
													"numoutlets" : 1,
													"outlettype" : [ "" ],
													"patching_rect" : [ 256.625, 1170.0, 29.0, 20.0 ],
													"text" : "* 2."
												}

											}
, 											{
												"box" : 												{
													"fontname" : "Arial",
													"fontsize" : 12.0,
													"id" : "obj-80",
													"maxclass" : "newobj",
													"numinlets" : 1,
													"numoutlets" : 1,
													"outlettype" : [ "" ],
													"patching_rect" : [ 256.625, 1140.0, 34.0, 20.0 ],
													"text" : "fract"
												}

											}
, 											{
												"box" : 												{
													"fontname" : "Arial",
													"fontsize" : 12.0,
													"id" : "obj-79",
													"maxclass" : "newobj",
													"numinlets" : 2,
													"numoutlets" : 1,
													"outlettype" : [ "" ],
													"patching_rect" : [ 256.625, 1110.0, 32.5, 20.0 ],
													"text" : "*"
												}

											}
, 											{
												"box" : 												{
													"fontname" : "Arial",
													"fontsize" : 12.0,
													"id" : "obj-78",
													"maxclass" : "newobj",
													"numinlets" : 1,
													"numoutlets" : 1,
													"outlettype" : [ "" ],
													"patching_rect" : [ 285.0, 1065.0, 64.0, 20.0 ],
													"text" : "swiz 3 3 3"
												}

											}
, 											{
												"box" : 												{
													"fontname" : "Arial",
													"fontsize" : 12.0,
													"id" : "obj-77",
													"maxclass" : "newobj",
													"numinlets" : 0,
													"numoutlets" : 1,
													"outlettype" : [ "" ],
													"patching_rect" : [ 285.0, 1035.0, 59.0, 20.0 ],
													"text" : "r vec4_C"
												}

											}
, 											{
												"box" : 												{
													"fontname" : "Arial",
													"fontsize" : 12.0,
													"id" : "obj-76",
													"maxclass" : "newobj",
													"numinlets" : 1,
													"numoutlets" : 0,
													"patching_rect" : [ 585.0, 135.0, 61.0, 20.0 ],
													"text" : "s vec4_C"
												}

											}
, 											{
												"box" : 												{
													"fontname" : "Arial",
													"fontsize" : 12.0,
													"id" : "obj-75",
													"maxclass" : "newobj",
													"numinlets" : 0,
													"numoutlets" : 1,
													"outlettype" : [ "" ],
													"patching_rect" : [ 496.25, 870.0, 63.0, 20.0 ],
													"text" : "r vec2_x0"
												}

											}
, 											{
												"box" : 												{
													"fontname" : "Arial",
													"fontsize" : 12.0,
													"id" : "obj-74",
													"maxclass" : "newobj",
													"numinlets" : 1,
													"numoutlets" : 0,
													"patching_rect" : [ 268.75, 375.0, 65.0, 20.0 ],
													"text" : "s vec2_x0"
												}

											}
, 											{
												"box" : 												{
													"fontname" : "Arial",
													"fontsize" : 12.0,
													"frgb" : 0.0,
													"id" : "obj-73",
													"maxclass" : "comment",
													"numinlets" : 1,
													"numoutlets" : 0,
													"patching_rect" : [ 607.5, 1035.0, 150.0, 20.0 ],
													"text" : "vec3 m"
												}

											}
, 											{
												"box" : 												{
													"fontname" : "Arial",
													"fontsize" : 12.0,
													"id" : "obj-71",
													"maxclass" : "newobj",
													"numinlets" : 2,
													"numoutlets" : 1,
													"outlettype" : [ "" ],
													"patching_rect" : [ 538.5, 1125.0, 32.5, 20.0 ],
													"text" : "*"
												}

											}
, 											{
												"box" : 												{
													"fontname" : "Arial",
													"fontsize" : 12.0,
													"id" : "obj-70",
													"maxclass" : "newobj",
													"numinlets" : 2,
													"numoutlets" : 1,
													"outlettype" : [ "" ],
													"patching_rect" : [ 538.5, 1080.0, 32.5, 20.0 ],
													"text" : "*"
												}

											}
, 											{
												"box" : 												{
													"fontname" : "Arial",
													"fontsize" : 12.0,
													"id" : "obj-69",
													"maxclass" : "newobj",
													"numinlets" : 2,
													"numoutlets" : 1,
													"outlettype" : [ "" ],
													"patching_rect" : [ 538.5, 1035.0, 33.0, 20.0 ],
													"text" : "max"
												}

											}
, 											{
												"box" : 												{
													"fontname" : "Arial",
													"fontsize" : 12.0,
													"id" : "obj-68",
													"maxclass" : "newobj",
													"numinlets" : 1,
													"numoutlets" : 1,
													"outlettype" : [ "" ],
													"patching_rect" : [ 538.5, 1005.0, 38.0, 20.0 ],
													"text" : "!- 0.5"
												}

											}
, 											{
												"box" : 												{
													"fontname" : "Arial",
													"fontsize" : 12.0,
													"id" : "obj-67",
													"maxclass" : "newobj",
													"numinlets" : 3,
													"numoutlets" : 1,
													"outlettype" : [ "" ],
													"patching_rect" : [ 538.5, 975.0, 59.0, 20.0 ],
													"text" : "vec 0 0 0"
												}

											}
, 											{
												"box" : 												{
													"fontname" : "Arial",
													"fontsize" : 12.0,
													"id" : "obj-66",
													"maxclass" : "newobj",
													"numinlets" : 2,
													"numoutlets" : 1,
													"outlettype" : [ "" ],
													"patching_rect" : [ 649.0, 915.0, 32.5, 20.0 ],
													"text" : "dot"
												}

											}
, 											{
												"box" : 												{
													"fontname" : "Arial",
													"fontsize" : 12.0,
													"id" : "obj-65",
													"maxclass" : "newobj",
													"numinlets" : 1,
													"numoutlets" : 1,
													"outlettype" : [ "" ],
													"patching_rect" : [ 649.0, 870.0, 53.0, 20.0 ],
													"text" : "swiz z 3"
												}

											}
, 											{
												"box" : 												{
													"fontname" : "Arial",
													"fontsize" : 12.0,
													"id" : "obj-64",
													"maxclass" : "newobj",
													"numinlets" : 2,
													"numoutlets" : 1,
													"outlettype" : [ "" ],
													"patching_rect" : [ 565.0, 915.0, 32.5, 20.0 ],
													"text" : "dot"
												}

											}
, 											{
												"box" : 												{
													"fontname" : "Arial",
													"fontsize" : 12.0,
													"id" : "obj-63",
													"maxclass" : "newobj",
													"numinlets" : 1,
													"numoutlets" : 1,
													"outlettype" : [ "" ],
													"patching_rect" : [ 565.0, 870.0, 52.0, 20.0 ],
													"text" : "swiz x y"
												}

											}
, 											{
												"box" : 												{
													"fontname" : "Arial",
													"fontsize" : 12.0,
													"frgb" : 0.0,
													"id" : "obj-62",
													"maxclass" : "comment",
													"numinlets" : 1,
													"numoutlets" : 0,
													"patching_rect" : [ 467.0, 615.0, 150.0, 20.0 ],
													"text" : "vec4 x12"
												}

											}
, 											{
												"box" : 												{
													"fontname" : "Arial",
													"fontsize" : 12.0,
													"id" : "obj-60",
													"maxclass" : "newobj",
													"numinlets" : 2,
													"numoutlets" : 1,
													"outlettype" : [ "" ],
													"patching_rect" : [ 496.25, 915.0, 41.0, 20.0 ],
													"text" : "dot"
												}

											}
, 											{
												"box" : 												{
													"fontname" : "Arial",
													"fontsize" : 12.0,
													"frgb" : 0.0,
													"id" : "obj-59",
													"maxclass" : "comment",
													"numinlets" : 1,
													"numoutlets" : 0,
													"patching_rect" : [ 195.0, 1005.0, 62.75, 20.0 ],
													"text" : "vec3 p"
												}

											}
, 											{
												"box" : 												{
													"fontname" : "Arial",
													"fontsize" : 12.0,
													"id" : "obj-57",
													"maxclass" : "newobj",
													"numinlets" : 1,
													"numoutlets" : 1,
													"outlettype" : [ "" ],
													"patcher" : 													{
														"fileversion" : 1,
														"appversion" : 														{
															"major" : 6,
															"minor" : 1,
															"revision" : 3,
															"architecture" : "x86"
														}
,
														"rect" : [ 481.0, 458.0, 600.0, 450.0 ],
														"bgcolor" : [ 0.9, 0.9, 0.9, 1.0 ],
														"bglocked" : 0,
														"openinpresentation" : 0,
														"default_fontsize" : 12.0,
														"default_fontface" : 0,
														"default_fontname" : "Arial",
														"gridonopen" : 0,
														"gridsize" : [ 15.0, 15.0 ],
														"gridsnaponopen" : 0,
														"statusbarvisible" : 2,
														"toolbarvisible" : 1,
														"boxanimatetime" : 200,
														"imprint" : 0,
														"enablehscroll" : 1,
														"enablevscroll" : 1,
														"devicewidth" : 0.0,
														"description" : "",
														"digest" : "",
														"tags" : "",
														"boxes" : [ 															{
																"box" : 																{
																	"fontname" : "Arial",
																	"fontsize" : 12.0,
																	"id" : "obj-128",
																	"maxclass" : "newobj",
																	"numinlets" : 1,
																	"numoutlets" : 1,
																	"outlettype" : [ "" ],
																	"patching_rect" : [ 225.0, 225.0, 222.0, 20.0 ],
																	"text" : "expr in1 - floor(in1 * (1.0 / 289.0)) * 289."
																}

															}
, 															{
																"box" : 																{
																	"fontname" : "Arial",
																	"fontsize" : 12.0,
																	"id" : "obj-127",
																	"maxclass" : "newobj",
																	"numinlets" : 1,
																	"numoutlets" : 1,
																	"outlettype" : [ "" ],
																	"patching_rect" : [ 225.0, 195.0, 134.0, 20.0 ],
																	"text" : "expr (in1*34.0+1.0)*in1"
																}

															}
, 															{
																"box" : 																{
																	"fontname" : "Arial",
																	"fontsize" : 12.0,
																	"id" : "obj-1",
																	"maxclass" : "newobj",
																	"numinlets" : 0,
																	"numoutlets" : 1,
																	"outlettype" : [ "" ],
																	"patching_rect" : [ 225.0, 150.0, 30.0, 20.0 ],
																	"text" : "in 1"
																}

															}
, 															{
																"box" : 																{
																	"fontname" : "Arial",
																	"fontsize" : 12.0,
																	"id" : "obj-4",
																	"maxclass" : "newobj",
																	"numinlets" : 1,
																	"numoutlets" : 0,
																	"patching_rect" : [ 225.0, 270.0, 37.0, 20.0 ],
																	"text" : "out 1"
																}

															}
 ],
														"lines" : [ 															{
																"patchline" : 																{
																	"destination" : [ "obj-127", 0 ],
																	"disabled" : 0,
																	"hidden" : 0,
																	"source" : [ "obj-1", 0 ]
																}

															}
, 															{
																"patchline" : 																{
																	"destination" : [ "obj-128", 0 ],
																	"disabled" : 0,
																	"hidden" : 0,
																	"source" : [ "obj-127", 0 ]
																}

															}
, 															{
																"patchline" : 																{
																	"destination" : [ "obj-4", 0 ],
																	"disabled" : 0,
																	"hidden" : 0,
																	"source" : [ "obj-128", 0 ]
																}

															}
 ]
													}
,
													"patching_rect" : [ 256.625, 1005.0, 112.0, 20.0 ],
													"text" : "gen @title permute"
												}

											}
, 											{
												"box" : 												{
													"fontname" : "Arial",
													"fontsize" : 12.0,
													"id" : "obj-56",
													"maxclass" : "newobj",
													"numinlets" : 2,
													"numoutlets" : 1,
													"outlettype" : [ "" ],
													"patching_rect" : [ 256.625, 975.0, 32.5, 20.0 ],
													"text" : "+"
												}

											}
, 											{
												"box" : 												{
													"fontname" : "Arial",
													"fontsize" : 12.0,
													"id" : "obj-52",
													"maxclass" : "newobj",
													"numinlets" : 2,
													"numoutlets" : 1,
													"outlettype" : [ "" ],
													"patching_rect" : [ 285.0, 930.0, 32.5, 20.0 ],
													"text" : "+"
												}

											}
, 											{
												"box" : 												{
													"fontname" : "Arial",
													"fontsize" : 12.0,
													"id" : "obj-53",
													"maxclass" : "newobj",
													"numinlets" : 1,
													"numoutlets" : 1,
													"outlettype" : [ "" ],
													"patching_rect" : [ 120.0, 765.0, 43.0, 20.0 ],
													"text" : "swiz x"
												}

											}
, 											{
												"box" : 												{
													"fontname" : "Arial",
													"fontsize" : 12.0,
													"id" : "obj-54",
													"maxclass" : "newobj",
													"numinlets" : 1,
													"numoutlets" : 1,
													"outlettype" : [ "" ],
													"patching_rect" : [ 411.5, 870.0, 43.0, 20.0 ],
													"text" : "swiz x"
												}

											}
, 											{
												"box" : 												{
													"fontname" : "Arial",
													"fontsize" : 12.0,
													"id" : "obj-55",
													"maxclass" : "newobj",
													"numinlets" : 3,
													"numoutlets" : 1,
													"outlettype" : [ "" ],
													"patching_rect" : [ 386.5, 900.0, 69.0, 20.0 ],
													"text" : "vec 0. 0. 1."
												}

											}
, 											{
												"box" : 												{
													"fontname" : "Arial",
													"fontsize" : 12.0,
													"id" : "obj-51",
													"maxclass" : "newobj",
													"numinlets" : 2,
													"numoutlets" : 1,
													"outlettype" : [ "" ],
													"patching_rect" : [ 256.625, 840.0, 32.5, 20.0 ],
													"text" : "+"
												}

											}
, 											{
												"box" : 												{
													"fontname" : "Arial",
													"fontsize" : 12.0,
													"id" : "obj-50",
													"maxclass" : "newobj",
													"numinlets" : 1,
													"numoutlets" : 1,
													"outlettype" : [ "" ],
													"patching_rect" : [ 175.0, 765.0, 43.0, 20.0 ],
													"text" : "swiz y"
												}

											}
, 											{
												"box" : 												{
													"fontname" : "Arial",
													"fontsize" : 12.0,
													"id" : "obj-49",
													"maxclass" : "newobj",
													"numinlets" : 1,
													"numoutlets" : 1,
													"outlettype" : [ "" ],
													"patching_rect" : [ 328.5, 765.0, 43.0, 20.0 ],
													"text" : "swiz y"
												}

											}
, 											{
												"box" : 												{
													"fontname" : "Arial",
													"fontsize" : 12.0,
													"frgb" : 0.0,
													"id" : "obj-48",
													"maxclass" : "comment",
													"numinlets" : 1,
													"numoutlets" : 0,
													"patching_rect" : [ 256.625, 510.0, 73.25, 20.0 ],
													"text" : "vec2 i1"
												}

											}
, 											{
												"box" : 												{
													"fontname" : "Arial",
													"fontsize" : 12.0,
													"id" : "obj-47",
													"maxclass" : "newobj",
													"numinlets" : 3,
													"numoutlets" : 1,
													"outlettype" : [ "" ],
													"patching_rect" : [ 303.5, 810.0, 69.0, 20.0 ],
													"text" : "vec 0. 0. 1."
												}

											}
, 											{
												"box" : 												{
													"fontname" : "Arial",
													"fontsize" : 12.0,
													"frgb" : 0.0,
													"id" : "obj-46",
													"maxclass" : "comment",
													"numinlets" : 1,
													"numoutlets" : 0,
													"patching_rect" : [ 218.25, 690.0, 150.0, 20.0 ],
													"text" : "// Permutations"
												}

											}
, 											{
												"box" : 												{
													"fontname" : "Arial",
													"fontsize" : 12.0,
													"frgb" : 0.0,
													"id" : "obj-44",
													"maxclass" : "comment",
													"numinlets" : 1,
													"numoutlets" : 0,
													"patching_rect" : [ 400.0, 240.0, 73.25, 20.0 ],
													"text" : "vec2 i"
												}

											}
, 											{
												"box" : 												{
													"fontname" : "Arial",
													"fontsize" : 12.0,
													"id" : "obj-42",
													"maxclass" : "newobj",
													"numinlets" : 2,
													"numoutlets" : 1,
													"outlettype" : [ "" ],
													"patching_rect" : [ 394.75, 615.0, 66.0, 20.0 ],
													"text" : "concat 0 0"
												}

											}
, 											{
												"box" : 												{
													"fontname" : "Arial",
													"fontsize" : 12.0,
													"id" : "obj-41",
													"maxclass" : "newobj",
													"numinlets" : 1,
													"numoutlets" : 1,
													"outlettype" : [ "" ],
													"patching_rect" : [ 496.25, 555.0, 55.0, 20.0 ],
													"text" : "swiz z w"
												}

											}
, 											{
												"box" : 												{
													"fontname" : "Arial",
													"fontsize" : 12.0,
													"id" : "obj-37",
													"maxclass" : "newobj",
													"numinlets" : 2,
													"numoutlets" : 1,
													"outlettype" : [ "" ],
													"patching_rect" : [ 394.75, 585.0, 32.5, 20.0 ],
													"text" : "!-"
												}

											}
, 											{
												"box" : 												{
													"fontname" : "Arial",
													"fontsize" : 12.0,
													"id" : "obj-36",
													"maxclass" : "newobj",
													"numinlets" : 1,
													"numoutlets" : 1,
													"outlettype" : [ "" ],
													"patching_rect" : [ 437.75, 555.0, 52.0, 20.0 ],
													"text" : "swiz x y"
												}

											}
, 											{
												"box" : 												{
													"fontname" : "Arial",
													"fontsize" : 12.0,
													"id" : "obj-34",
													"maxclass" : "newobj",
													"numinlets" : 1,
													"numoutlets" : 1,
													"outlettype" : [ "" ],
													"patching_rect" : [ 378.0, 420.0, 43.0, 20.0 ],
													"text" : "swiz y"
												}

											}
, 											{
												"box" : 												{
													"fontname" : "Arial",
													"fontsize" : 12.0,
													"id" : "obj-33",
													"maxclass" : "newobj",
													"numinlets" : 2,
													"numoutlets" : 1,
													"outlettype" : [ "" ],
													"patching_rect" : [ 518.5, 510.0, 32.5, 20.0 ],
													"text" : "+"
												}

											}
, 											{
												"box" : 												{
													"fontname" : "Arial",
													"fontsize" : 12.0,
													"id" : "obj-32",
													"maxclass" : "newobj",
													"numinlets" : 1,
													"numoutlets" : 1,
													"outlettype" : [ "" ],
													"patching_rect" : [ 561.0, 420.0, 71.0, 20.0 ],
													"text" : "swiz x x z z"
												}

											}
, 											{
												"box" : 												{
													"fontname" : "Arial",
													"fontsize" : 12.0,
													"id" : "obj-31",
													"maxclass" : "newobj",
													"numinlets" : 1,
													"numoutlets" : 1,
													"outlettype" : [ "" ],
													"patching_rect" : [ 480.0, 420.0, 71.0, 20.0 ],
													"text" : "swiz x y x y"
												}

											}
, 											{
												"box" : 												{
													"fontname" : "Arial",
													"fontsize" : 12.0,
													"frgb" : 0.0,
													"id" : "obj-30",
													"maxclass" : "comment",
													"numinlets" : 1,
													"numoutlets" : 0,
													"patching_rect" : [ 400.0, 345.0, 73.25, 20.0 ],
													"text" : "vec2 x0"
												}

											}
, 											{
												"box" : 												{
													"fontname" : "Arial",
													"fontsize" : 12.0,
													"id" : "obj-28",
													"maxclass" : "newobj",
													"numinlets" : 2,
													"numoutlets" : 1,
													"outlettype" : [ "" ],
													"patching_rect" : [ 328.5, 465.0, 32.5, 20.0 ],
													"text" : ">"
												}

											}
, 											{
												"box" : 												{
													"fontname" : "Arial",
													"fontsize" : 12.0,
													"id" : "obj-26",
													"maxclass" : "newobj",
													"numinlets" : 1,
													"numoutlets" : 1,
													"outlettype" : [ "" ],
													"patching_rect" : [ 328.5, 420.0, 43.0, 20.0 ],
													"text" : "swiz x"
												}

											}
, 											{
												"box" : 												{
													"fontname" : "Arial",
													"fontsize" : 12.0,
													"id" : "obj-25",
													"maxclass" : "newobj",
													"numinlets" : 3,
													"numoutlets" : 1,
													"outlettype" : [ "" ],
													"patching_rect" : [ 328.5, 510.0, 105.0, 20.0 ],
													"text" : "?"
												}

											}
, 											{
												"box" : 												{
													"fontname" : "Arial",
													"fontsize" : 12.0,
													"id" : "obj-24",
													"maxclass" : "newobj",
													"numinlets" : 2,
													"numoutlets" : 1,
													"outlettype" : [ "" ],
													"patching_rect" : [ 431.5, 480.0, 56.0, 20.0 ],
													"text" : "vec 0. 1."
												}

											}
, 											{
												"box" : 												{
													"fontname" : "Arial",
													"fontsize" : 12.0,
													"id" : "obj-23",
													"maxclass" : "newobj",
													"numinlets" : 2,
													"numoutlets" : 1,
													"outlettype" : [ "" ],
													"patching_rect" : [ 371.5, 480.0, 56.0, 20.0 ],
													"text" : "vec 1. 0."
												}

											}
, 											{
												"box" : 												{
													"fontname" : "Arial",
													"fontsize" : 12.0,
													"frgb" : 0.0,
													"id" : "obj-22",
													"maxclass" : "comment",
													"numinlets" : 1,
													"numoutlets" : 0,
													"patching_rect" : [ 218.25, 405.0, 150.0, 20.0 ],
													"text" : "// Other corners"
												}

											}
, 											{
												"box" : 												{
													"fontname" : "Arial",
													"fontsize" : 12.0,
													"frgb" : 0.0,
													"id" : "obj-21",
													"maxclass" : "comment",
													"numinlets" : 1,
													"numoutlets" : 0,
													"patching_rect" : [ 218.25, 135.0, 150.0, 20.0 ],
													"text" : "// First corner"
												}

											}
, 											{
												"box" : 												{
													"fontname" : "Arial",
													"fontsize" : 12.0,
													"id" : "obj-19",
													"maxclass" : "newobj",
													"numinlets" : 1,
													"numoutlets" : 1,
													"outlettype" : [ "" ],
													"patching_rect" : [ 456.5, 255.0, 52.0, 20.0 ],
													"text" : "swiz x x"
												}

											}
, 											{
												"box" : 												{
													"fontname" : "Arial",
													"fontsize" : 12.0,
													"id" : "obj-18",
													"maxclass" : "newobj",
													"numinlets" : 2,
													"numoutlets" : 1,
													"outlettype" : [ "" ],
													"patching_rect" : [ 386.5, 285.0, 32.5, 20.0 ],
													"text" : "dot"
												}

											}
, 											{
												"box" : 												{
													"fontname" : "Arial",
													"fontsize" : 12.0,
													"id" : "obj-14",
													"maxclass" : "newobj",
													"numinlets" : 1,
													"numoutlets" : 1,
													"outlettype" : [ "" ],
													"patching_rect" : [ 456.5, 135.0, 52.0, 20.0 ],
													"text" : "swiz y y"
												}

											}
, 											{
												"box" : 												{
													"fontname" : "Arial",
													"fontsize" : 12.0,
													"id" : "obj-13",
													"maxclass" : "newobj",
													"numinlets" : 2,
													"numoutlets" : 1,
													"outlettype" : [ "" ],
													"patching_rect" : [ 370.0, 210.0, 32.5, 20.0 ],
													"text" : "+"
												}

											}
, 											{
												"box" : 												{
													"fontname" : "Arial",
													"fontsize" : 12.0,
													"id" : "obj-12",
													"maxclass" : "newobj",
													"numinlets" : 2,
													"numoutlets" : 1,
													"outlettype" : [ "" ],
													"patching_rect" : [ 411.5, 165.0, 32.5, 20.0 ],
													"text" : "dot"
												}

											}
, 											{
												"box" : 												{
													"fontname" : "Arial",
													"fontsize" : 12.0,
													"id" : "obj-11",
													"maxclass" : "newobj",
													"numinlets" : 1,
													"numoutlets" : 1,
													"outlettype" : [ "" ],
													"patching_rect" : [ 370.0, 240.0, 34.0, 20.0 ],
													"text" : "floor"
												}

											}
, 											{
												"box" : 												{
													"fontname" : "Arial",
													"fontsize" : 12.0,
													"frgb" : 0.0,
													"id" : "obj-10",
													"linecount" : 9,
													"maxclass" : "comment",
													"numinlets" : 1,
													"numoutlets" : 0,
													"patching_rect" : [ 705.0, 466.0, 420.0, 127.0 ],
													"text" : "//\n// Description : Array and textureless GLSL 2D simplex noise function.\n//      Author : Ian McEwan, Ashima Arts.\n//  Maintainer : ijm\n//     Lastmod : 20110822 (ijm)\n//     License : Copyright (C) 2011 Ashima Arts. All rights reserved.\n//               Distributed under the MIT License. See LICENSE file.\n//               https://github.com/ashima/webgl-noise\n// "
												}

											}
, 											{
												"box" : 												{
													"fontname" : "Arial",
													"fontsize" : 12.0,
													"frgb" : 0.0,
													"id" : "obj-8",
													"maxclass" : "comment",
													"numinlets" : 1,
													"numoutlets" : 0,
													"patching_rect" : [ 358.0, 90.0, 56.5, 20.0 ],
													"text" : "vec2 v"
												}

											}
, 											{
												"box" : 												{
													"fontname" : "Arial",
													"fontsize" : 12.0,
													"id" : "obj-6",
													"maxclass" : "newobj",
													"numinlets" : 0,
													"numoutlets" : 1,
													"outlettype" : [ "" ],
													"patching_rect" : [ 328.5, 90.0, 30.0, 20.0 ],
													"text" : "in 1"
												}

											}
, 											{
												"box" : 												{
													"fontname" : "Arial",
													"fontsize" : 12.0,
													"id" : "obj-3",
													"maxclass" : "newobj",
													"numinlets" : 4,
													"numoutlets" : 1,
													"outlettype" : [ "" ],
													"patching_rect" : [ 538.5, 60.0, 232.0, 20.0 ],
													"text" : "vec 0.211325 0.366025 -0.57735 0.02439"
												}

											}
, 											{
												"box" : 												{
													"fontname" : "Arial",
													"fontsize" : 12.0,
													"id" : "obj-2",
													"maxclass" : "newobj",
													"numinlets" : 1,
													"numoutlets" : 1,
													"outlettype" : [ "" ],
													"patcher" : 													{
														"fileversion" : 1,
														"appversion" : 														{
															"major" : 6,
															"minor" : 1,
															"revision" : 3,
															"architecture" : "x86"
														}
,
														"rect" : [ 481.0, 458.0, 600.0, 450.0 ],
														"bgcolor" : [ 0.9, 0.9, 0.9, 1.0 ],
														"bglocked" : 0,
														"openinpresentation" : 0,
														"default_fontsize" : 12.0,
														"default_fontface" : 0,
														"default_fontname" : "Arial",
														"gridonopen" : 0,
														"gridsize" : [ 15.0, 15.0 ],
														"gridsnaponopen" : 0,
														"statusbarvisible" : 2,
														"toolbarvisible" : 1,
														"boxanimatetime" : 200,
														"imprint" : 0,
														"enablehscroll" : 1,
														"enablevscroll" : 1,
														"devicewidth" : 0.0,
														"description" : "",
														"digest" : "",
														"tags" : "",
														"boxes" : [ 															{
																"box" : 																{
																	"fontname" : "Arial",
																	"fontsize" : 12.0,
																	"id" : "obj-128",
																	"maxclass" : "newobj",
																	"numinlets" : 1,
																	"numoutlets" : 1,
																	"outlettype" : [ "" ],
																	"patching_rect" : [ 225.0, 225.0, 222.0, 20.0 ],
																	"text" : "expr in1 - floor(in1 * (1.0 / 289.0)) * 289."
																}

															}
, 															{
																"box" : 																{
																	"fontname" : "Arial",
																	"fontsize" : 12.0,
																	"id" : "obj-127",
																	"maxclass" : "newobj",
																	"numinlets" : 1,
																	"numoutlets" : 1,
																	"outlettype" : [ "" ],
																	"patching_rect" : [ 225.0, 195.0, 134.0, 20.0 ],
																	"text" : "expr (in1*34.0+1.0)*in1"
																}

															}
, 															{
																"box" : 																{
																	"fontname" : "Arial",
																	"fontsize" : 12.0,
																	"id" : "obj-1",
																	"maxclass" : "newobj",
																	"numinlets" : 0,
																	"numoutlets" : 1,
																	"outlettype" : [ "" ],
																	"patching_rect" : [ 225.0, 150.0, 30.0, 20.0 ],
																	"text" : "in 1"
																}

															}
, 															{
																"box" : 																{
																	"fontname" : "Arial",
																	"fontsize" : 12.0,
																	"id" : "obj-4",
																	"maxclass" : "newobj",
																	"numinlets" : 1,
																	"numoutlets" : 0,
																	"patching_rect" : [ 225.0, 270.0, 37.0, 20.0 ],
																	"text" : "out 1"
																}

															}
 ],
														"lines" : [ 															{
																"patchline" : 																{
																	"destination" : [ "obj-127", 0 ],
																	"disabled" : 0,
																	"hidden" : 0,
																	"source" : [ "obj-1", 0 ]
																}

															}
, 															{
																"patchline" : 																{
																	"destination" : [ "obj-128", 0 ],
																	"disabled" : 0,
																	"hidden" : 0,
																	"source" : [ "obj-127", 0 ]
																}

															}
, 															{
																"patchline" : 																{
																	"destination" : [ "obj-4", 0 ],
																	"disabled" : 0,
																	"hidden" : 0,
																	"source" : [ "obj-128", 0 ]
																}

															}
 ]
													}
,
													"patching_rect" : [ 256.625, 870.0, 112.0, 20.0 ],
													"text" : "gen @title permute"
												}

											}
, 											{
												"box" : 												{
													"fontname" : "Arial",
													"fontsize" : 12.0,
													"id" : "obj-1",
													"maxclass" : "newobj",
													"numinlets" : 1,
													"numoutlets" : 1,
													"outlettype" : [ "" ],
													"patcher" : 													{
														"fileversion" : 1,
														"appversion" : 														{
															"major" : 6,
															"minor" : 1,
															"revision" : 3,
															"architecture" : "x86"
														}
,
														"rect" : [ 125.0, 448.0, 600.0, 450.0 ],
														"bgcolor" : [ 0.9, 0.9, 0.9, 1.0 ],
														"bglocked" : 0,
														"openinpresentation" : 0,
														"default_fontsize" : 12.0,
														"default_fontface" : 0,
														"default_fontname" : "Arial",
														"gridonopen" : 0,
														"gridsize" : [ 15.0, 15.0 ],
														"gridsnaponopen" : 0,
														"statusbarvisible" : 2,
														"toolbarvisible" : 1,
														"boxanimatetime" : 200,
														"imprint" : 0,
														"enablehscroll" : 1,
														"enablevscroll" : 1,
														"devicewidth" : 0.0,
														"description" : "",
														"digest" : "",
														"tags" : "",
														"boxes" : [ 															{
																"box" : 																{
																	"fontname" : "Arial",
																	"fontsize" : 12.0,
																	"id" : "obj-128",
																	"maxclass" : "newobj",
																	"numinlets" : 1,
																	"numoutlets" : 1,
																	"outlettype" : [ "" ],
																	"patching_rect" : [ 206.0, 165.0, 222.0, 20.0 ],
																	"text" : "expr in1 - floor(in1 * (1.0 / 289.0)) * 289."
																}

															}
, 															{
																"box" : 																{
																	"fontname" : "Arial",
																	"fontsize" : 12.0,
																	"id" : "obj-1",
																	"maxclass" : "newobj",
																	"numinlets" : 0,
																	"numoutlets" : 1,
																	"outlettype" : [ "" ],
																	"patching_rect" : [ 206.0, 135.0, 30.0, 20.0 ],
																	"text" : "in 1"
																}

															}
, 															{
																"box" : 																{
																	"fontname" : "Arial",
																	"fontsize" : 12.0,
																	"id" : "obj-4",
																	"maxclass" : "newobj",
																	"numinlets" : 1,
																	"numoutlets" : 0,
																	"patching_rect" : [ 206.0, 195.0, 37.0, 20.0 ],
																	"text" : "out 1"
																}

															}
 ],
														"lines" : [ 															{
																"patchline" : 																{
																	"destination" : [ "obj-128", 0 ],
																	"disabled" : 0,
																	"hidden" : 0,
																	"source" : [ "obj-1", 0 ]
																}

															}
, 															{
																"patchline" : 																{
																	"destination" : [ "obj-4", 0 ],
																	"disabled" : 0,
																	"hidden" : 0,
																	"source" : [ "obj-128", 0 ]
																}

															}
 ]
													}
,
													"patching_rect" : [ 175.0, 330.0, 111.0, 20.0 ],
													"text" : "gen @title mod289"
												}

											}
, 											{
												"box" : 												{
													"fontname" : "Arial",
													"fontsize" : 12.0,
													"id" : "obj-4",
													"maxclass" : "newobj",
													"numinlets" : 1,
													"numoutlets" : 0,
													"patching_rect" : [ 414.5, 1710.0, 37.0, 20.0 ],
													"text" : "out 1"
												}

											}
 ],
										"lines" : [ 											{
												"patchline" : 												{
													"destination" : [ "obj-50", 0 ],
													"disabled" : 0,
													"hidden" : 0,
													"source" : [ "obj-1", 0 ]
												}

											}
, 											{
												"patchline" : 												{
													"destination" : [ "obj-53", 0 ],
													"disabled" : 0,
													"hidden" : 0,
													"source" : [ "obj-1", 0 ]
												}

											}
, 											{
												"patchline" : 												{
													"destination" : [ "obj-101", 0 ],
													"disabled" : 0,
													"hidden" : 0,
													"source" : [ "obj-100", 0 ]
												}

											}
, 											{
												"patchline" : 												{
													"destination" : [ "obj-107", 0 ],
													"disabled" : 0,
													"hidden" : 0,
													"source" : [ "obj-101", 0 ]
												}

											}
, 											{
												"patchline" : 												{
													"destination" : [ "obj-107", 1 ],
													"disabled" : 0,
													"hidden" : 0,
													"source" : [ "obj-102", 0 ]
												}

											}
, 											{
												"patchline" : 												{
													"destination" : [ "obj-102", 0 ],
													"disabled" : 0,
													"hidden" : 0,
													"source" : [ "obj-103", 0 ]
												}

											}
, 											{
												"patchline" : 												{
													"destination" : [ "obj-105", 0 ],
													"disabled" : 0,
													"hidden" : 0,
													"source" : [ "obj-104", 0 ]
												}

											}
, 											{
												"patchline" : 												{
													"destination" : [ "obj-106", 0 ],
													"disabled" : 0,
													"hidden" : 0,
													"source" : [ "obj-104", 0 ]
												}

											}
, 											{
												"patchline" : 												{
													"destination" : [ "obj-101", 1 ],
													"disabled" : 0,
													"hidden" : 0,
													"source" : [ "obj-105", 0 ]
												}

											}
, 											{
												"patchline" : 												{
													"destination" : [ "obj-102", 1 ],
													"disabled" : 0,
													"hidden" : 0,
													"source" : [ "obj-106", 0 ]
												}

											}
, 											{
												"patchline" : 												{
													"destination" : [ "obj-118", 0 ],
													"disabled" : 0,
													"hidden" : 0,
													"source" : [ "obj-107", 0 ]
												}

											}
, 											{
												"patchline" : 												{
													"destination" : [ "obj-1", 0 ],
													"disabled" : 0,
													"hidden" : 0,
													"source" : [ "obj-11", 0 ]
												}

											}
, 											{
												"patchline" : 												{
													"destination" : [ "obj-18", 0 ],
													"disabled" : 0,
													"hidden" : 0,
													"source" : [ "obj-11", 0 ]
												}

											}
, 											{
												"patchline" : 												{
													"destination" : [ "obj-5", 1 ],
													"disabled" : 0,
													"hidden" : 0,
													"source" : [ "obj-11", 0 ]
												}

											}
, 											{
												"patchline" : 												{
													"destination" : [ "obj-113", 0 ],
													"disabled" : 0,
													"hidden" : 0,
													"source" : [ "obj-111", 0 ]
												}

											}
, 											{
												"patchline" : 												{
													"destination" : [ "obj-113", 1 ],
													"disabled" : 0,
													"hidden" : 0,
													"source" : [ "obj-112", 0 ]
												}

											}
, 											{
												"patchline" : 												{
													"destination" : [ "obj-117", 0 ],
													"disabled" : 0,
													"hidden" : 0,
													"source" : [ "obj-113", 0 ]
												}

											}
, 											{
												"patchline" : 												{
													"destination" : [ "obj-117", 1 ],
													"disabled" : 0,
													"hidden" : 0,
													"source" : [ "obj-114", 0 ]
												}

											}
, 											{
												"patchline" : 												{
													"destination" : [ "obj-114", 1 ],
													"disabled" : 0,
													"hidden" : 0,
													"source" : [ "obj-115", 0 ]
												}

											}
, 											{
												"patchline" : 												{
													"destination" : [ "obj-114", 0 ],
													"disabled" : 0,
													"hidden" : 0,
													"source" : [ "obj-116", 0 ]
												}

											}
, 											{
												"patchline" : 												{
													"destination" : [ "obj-118", 1 ],
													"disabled" : 0,
													"hidden" : 0,
													"source" : [ "obj-117", 0 ]
												}

											}
, 											{
												"patchline" : 												{
													"destination" : [ "obj-119", 1 ],
													"disabled" : 0,
													"hidden" : 0,
													"source" : [ "obj-118", 0 ]
												}

											}
, 											{
												"patchline" : 												{
													"destination" : [ "obj-121", 0 ],
													"disabled" : 0,
													"hidden" : 0,
													"source" : [ "obj-119", 0 ]
												}

											}
, 											{
												"patchline" : 												{
													"destination" : [ "obj-13", 1 ],
													"disabled" : 0,
													"hidden" : 0,
													"source" : [ "obj-12", 0 ]
												}

											}
, 											{
												"patchline" : 												{
													"destination" : [ "obj-4", 0 ],
													"disabled" : 0,
													"hidden" : 0,
													"source" : [ "obj-121", 0 ]
												}

											}
, 											{
												"patchline" : 												{
													"destination" : [ "obj-112", 0 ],
													"disabled" : 0,
													"hidden" : 0,
													"source" : [ "obj-123", 0 ]
												}

											}
, 											{
												"patchline" : 												{
													"destination" : [ "obj-115", 0 ],
													"disabled" : 0,
													"hidden" : 0,
													"source" : [ "obj-123", 0 ]
												}

											}
, 											{
												"patchline" : 												{
													"destination" : [ "obj-11", 0 ],
													"disabled" : 0,
													"hidden" : 0,
													"source" : [ "obj-13", 0 ]
												}

											}
, 											{
												"patchline" : 												{
													"destination" : [ "obj-12", 1 ],
													"disabled" : 0,
													"hidden" : 0,
													"source" : [ "obj-14", 0 ]
												}

											}
, 											{
												"patchline" : 												{
													"destination" : [ "obj-7", 1 ],
													"disabled" : 0,
													"hidden" : 0,
													"source" : [ "obj-18", 0 ]
												}

											}
, 											{
												"patchline" : 												{
													"destination" : [ "obj-18", 1 ],
													"disabled" : 0,
													"hidden" : 0,
													"source" : [ "obj-19", 0 ]
												}

											}
, 											{
												"patchline" : 												{
													"destination" : [ "obj-56", 0 ],
													"disabled" : 0,
													"hidden" : 0,
													"source" : [ "obj-2", 0 ]
												}

											}
, 											{
												"patchline" : 												{
													"destination" : [ "obj-25", 1 ],
													"disabled" : 0,
													"hidden" : 0,
													"source" : [ "obj-23", 0 ]
												}

											}
, 											{
												"patchline" : 												{
													"destination" : [ "obj-25", 2 ],
													"disabled" : 0,
													"hidden" : 0,
													"source" : [ "obj-24", 0 ]
												}

											}
, 											{
												"patchline" : 												{
													"destination" : [ "obj-37", 0 ],
													"disabled" : 0,
													"hidden" : 0,
													"source" : [ "obj-25", 0 ]
												}

											}
, 											{
												"patchline" : 												{
													"destination" : [ "obj-49", 0 ],
													"disabled" : 0,
													"hidden" : 0,
													"source" : [ "obj-25", 0 ]
												}

											}
, 											{
												"patchline" : 												{
													"destination" : [ "obj-54", 0 ],
													"disabled" : 0,
													"hidden" : 0,
													"source" : [ "obj-25", 0 ]
												}

											}
, 											{
												"patchline" : 												{
													"destination" : [ "obj-28", 0 ],
													"disabled" : 0,
													"hidden" : 0,
													"source" : [ "obj-26", 0 ]
												}

											}
, 											{
												"patchline" : 												{
													"destination" : [ "obj-25", 0 ],
													"disabled" : 0,
													"hidden" : 0,
													"source" : [ "obj-28", 0 ]
												}

											}
, 											{
												"patchline" : 												{
													"destination" : [ "obj-14", 0 ],
													"disabled" : 0,
													"hidden" : 0,
													"source" : [ "obj-3", 0 ]
												}

											}
, 											{
												"patchline" : 												{
													"destination" : [ "obj-19", 0 ],
													"disabled" : 0,
													"hidden" : 0,
													"source" : [ "obj-3", 0 ]
												}

											}
, 											{
												"patchline" : 												{
													"destination" : [ "obj-32", 0 ],
													"disabled" : 0,
													"hidden" : 0,
													"source" : [ "obj-3", 0 ]
												}

											}
, 											{
												"patchline" : 												{
													"destination" : [ "obj-76", 0 ],
													"disabled" : 0,
													"hidden" : 0,
													"source" : [ "obj-3", 0 ]
												}

											}
, 											{
												"patchline" : 												{
													"destination" : [ "obj-33", 0 ],
													"disabled" : 0,
													"hidden" : 0,
													"source" : [ "obj-31", 0 ]
												}

											}
, 											{
												"patchline" : 												{
													"destination" : [ "obj-33", 1 ],
													"disabled" : 0,
													"hidden" : 0,
													"source" : [ "obj-32", 0 ]
												}

											}
, 											{
												"patchline" : 												{
													"destination" : [ "obj-36", 0 ],
													"disabled" : 0,
													"hidden" : 0,
													"source" : [ "obj-33", 0 ]
												}

											}
, 											{
												"patchline" : 												{
													"destination" : [ "obj-41", 0 ],
													"disabled" : 0,
													"hidden" : 0,
													"source" : [ "obj-33", 0 ]
												}

											}
, 											{
												"patchline" : 												{
													"destination" : [ "obj-28", 1 ],
													"disabled" : 0,
													"hidden" : 0,
													"source" : [ "obj-34", 0 ]
												}

											}
, 											{
												"patchline" : 												{
													"destination" : [ "obj-37", 1 ],
													"disabled" : 0,
													"hidden" : 0,
													"source" : [ "obj-36", 0 ]
												}

											}
, 											{
												"patchline" : 												{
													"destination" : [ "obj-42", 0 ],
													"disabled" : 0,
													"hidden" : 0,
													"source" : [ "obj-37", 0 ]
												}

											}
, 											{
												"patchline" : 												{
													"destination" : [ "obj-42", 1 ],
													"disabled" : 0,
													"hidden" : 0,
													"source" : [ "obj-41", 0 ]
												}

											}
, 											{
												"patchline" : 												{
													"destination" : [ "obj-122", 0 ],
													"disabled" : 0,
													"hidden" : 0,
													"source" : [ "obj-42", 0 ]
												}

											}
, 											{
												"patchline" : 												{
													"destination" : [ "obj-63", 0 ],
													"disabled" : 0,
													"hidden" : 0,
													"source" : [ "obj-42", 0 ]
												}

											}
, 											{
												"patchline" : 												{
													"destination" : [ "obj-65", 0 ],
													"disabled" : 0,
													"hidden" : 0,
													"source" : [ "obj-42", 0 ]
												}

											}
, 											{
												"patchline" : 												{
													"destination" : [ "obj-51", 1 ],
													"disabled" : 0,
													"hidden" : 0,
													"source" : [ "obj-47", 0 ]
												}

											}
, 											{
												"patchline" : 												{
													"destination" : [ "obj-47", 1 ],
													"disabled" : 0,
													"hidden" : 0,
													"source" : [ "obj-49", 0 ]
												}

											}
, 											{
												"patchline" : 												{
													"destination" : [ "obj-7", 0 ],
													"disabled" : 0,
													"hidden" : 0,
													"source" : [ "obj-5", 0 ]
												}

											}
, 											{
												"patchline" : 												{
													"destination" : [ "obj-51", 0 ],
													"disabled" : 0,
													"hidden" : 0,
													"source" : [ "obj-50", 0 ]
												}

											}
, 											{
												"patchline" : 												{
													"destination" : [ "obj-2", 0 ],
													"disabled" : 0,
													"hidden" : 0,
													"source" : [ "obj-51", 0 ]
												}

											}
, 											{
												"patchline" : 												{
													"destination" : [ "obj-56", 1 ],
													"disabled" : 0,
													"hidden" : 0,
													"source" : [ "obj-52", 0 ]
												}

											}
, 											{
												"patchline" : 												{
													"destination" : [ "obj-52", 0 ],
													"disabled" : 0,
													"hidden" : 0,
													"source" : [ "obj-53", 0 ]
												}

											}
, 											{
												"patchline" : 												{
													"destination" : [ "obj-55", 1 ],
													"disabled" : 0,
													"hidden" : 0,
													"source" : [ "obj-54", 0 ]
												}

											}
, 											{
												"patchline" : 												{
													"destination" : [ "obj-52", 1 ],
													"disabled" : 0,
													"hidden" : 0,
													"source" : [ "obj-55", 0 ]
												}

											}
, 											{
												"patchline" : 												{
													"destination" : [ "obj-57", 0 ],
													"disabled" : 0,
													"hidden" : 0,
													"source" : [ "obj-56", 0 ]
												}

											}
, 											{
												"patchline" : 												{
													"destination" : [ "obj-79", 0 ],
													"disabled" : 0,
													"hidden" : 0,
													"source" : [ "obj-57", 0 ]
												}

											}
, 											{
												"patchline" : 												{
													"destination" : [ "obj-12", 0 ],
													"disabled" : 0,
													"hidden" : 0,
													"source" : [ "obj-6", 0 ]
												}

											}
, 											{
												"patchline" : 												{
													"destination" : [ "obj-13", 0 ],
													"disabled" : 0,
													"hidden" : 0,
													"source" : [ "obj-6", 0 ]
												}

											}
, 											{
												"patchline" : 												{
													"destination" : [ "obj-5", 0 ],
													"disabled" : 0,
													"hidden" : 0,
													"source" : [ "obj-6", 0 ]
												}

											}
, 											{
												"patchline" : 												{
													"destination" : [ "obj-67", 0 ],
													"disabled" : 0,
													"hidden" : 0,
													"source" : [ "obj-60", 0 ]
												}

											}
, 											{
												"patchline" : 												{
													"destination" : [ "obj-64", 1 ],
													"disabled" : 0,
													"hidden" : 0,
													"source" : [ "obj-63", 0 ]
												}

											}
, 											{
												"patchline" : 												{
													"destination" : [ "obj-64", 0 ],
													"disabled" : 0,
													"hidden" : 0,
													"source" : [ "obj-63", 0 ]
												}

											}
, 											{
												"patchline" : 												{
													"destination" : [ "obj-67", 1 ],
													"disabled" : 0,
													"hidden" : 0,
													"source" : [ "obj-64", 0 ]
												}

											}
, 											{
												"patchline" : 												{
													"destination" : [ "obj-66", 1 ],
													"disabled" : 0,
													"hidden" : 0,
													"source" : [ "obj-65", 0 ]
												}

											}
, 											{
												"patchline" : 												{
													"destination" : [ "obj-66", 0 ],
													"disabled" : 0,
													"hidden" : 0,
													"source" : [ "obj-65", 0 ]
												}

											}
, 											{
												"patchline" : 												{
													"destination" : [ "obj-67", 2 ],
													"disabled" : 0,
													"hidden" : 0,
													"source" : [ "obj-66", 0 ]
												}

											}
, 											{
												"patchline" : 												{
													"destination" : [ "obj-68", 0 ],
													"disabled" : 0,
													"hidden" : 0,
													"source" : [ "obj-67", 0 ]
												}

											}
, 											{
												"patchline" : 												{
													"destination" : [ "obj-69", 0 ],
													"disabled" : 0,
													"hidden" : 0,
													"source" : [ "obj-68", 0 ]
												}

											}
, 											{
												"patchline" : 												{
													"destination" : [ "obj-70", 1 ],
													"disabled" : 0,
													"hidden" : 0,
													"source" : [ "obj-69", 0 ]
												}

											}
, 											{
												"patchline" : 												{
													"destination" : [ "obj-70", 0 ],
													"disabled" : 0,
													"hidden" : 0,
													"source" : [ "obj-69", 0 ]
												}

											}
, 											{
												"patchline" : 												{
													"destination" : [ "obj-26", 0 ],
													"disabled" : 0,
													"hidden" : 0,
													"source" : [ "obj-7", 0 ]
												}

											}
, 											{
												"patchline" : 												{
													"destination" : [ "obj-31", 0 ],
													"disabled" : 0,
													"hidden" : 0,
													"source" : [ "obj-7", 0 ]
												}

											}
, 											{
												"patchline" : 												{
													"destination" : [ "obj-34", 0 ],
													"disabled" : 0,
													"hidden" : 0,
													"source" : [ "obj-7", 0 ]
												}

											}
, 											{
												"patchline" : 												{
													"destination" : [ "obj-74", 0 ],
													"disabled" : 0,
													"hidden" : 0,
													"source" : [ "obj-7", 0 ]
												}

											}
, 											{
												"patchline" : 												{
													"destination" : [ "obj-71", 1 ],
													"disabled" : 0,
													"hidden" : 0,
													"source" : [ "obj-70", 0 ]
												}

											}
, 											{
												"patchline" : 												{
													"destination" : [ "obj-71", 0 ],
													"disabled" : 0,
													"hidden" : 0,
													"source" : [ "obj-70", 0 ]
												}

											}
, 											{
												"patchline" : 												{
													"destination" : [ "obj-98", 0 ],
													"disabled" : 0,
													"hidden" : 0,
													"source" : [ "obj-71", 0 ]
												}

											}
, 											{
												"patchline" : 												{
													"destination" : [ "obj-60", 1 ],
													"disabled" : 0,
													"hidden" : 0,
													"source" : [ "obj-75", 0 ]
												}

											}
, 											{
												"patchline" : 												{
													"destination" : [ "obj-60", 0 ],
													"disabled" : 0,
													"hidden" : 0,
													"source" : [ "obj-75", 0 ]
												}

											}
, 											{
												"patchline" : 												{
													"destination" : [ "obj-78", 0 ],
													"disabled" : 0,
													"hidden" : 0,
													"source" : [ "obj-77", 0 ]
												}

											}
, 											{
												"patchline" : 												{
													"destination" : [ "obj-79", 1 ],
													"disabled" : 0,
													"hidden" : 0,
													"source" : [ "obj-78", 0 ]
												}

											}
, 											{
												"patchline" : 												{
													"destination" : [ "obj-80", 0 ],
													"disabled" : 0,
													"hidden" : 0,
													"source" : [ "obj-79", 0 ]
												}

											}
, 											{
												"patchline" : 												{
													"destination" : [ "obj-81", 0 ],
													"disabled" : 0,
													"hidden" : 0,
													"source" : [ "obj-80", 0 ]
												}

											}
, 											{
												"patchline" : 												{
													"destination" : [ "obj-82", 0 ],
													"disabled" : 0,
													"hidden" : 0,
													"source" : [ "obj-81", 0 ]
												}

											}
, 											{
												"patchline" : 												{
													"destination" : [ "obj-83", 0 ],
													"disabled" : 0,
													"hidden" : 0,
													"source" : [ "obj-82", 0 ]
												}

											}
, 											{
												"patchline" : 												{
													"destination" : [ "obj-85", 0 ],
													"disabled" : 0,
													"hidden" : 0,
													"source" : [ "obj-82", 0 ]
												}

											}
, 											{
												"patchline" : 												{
													"destination" : [ "obj-87", 0 ],
													"disabled" : 0,
													"hidden" : 0,
													"source" : [ "obj-82", 0 ]
												}

											}
, 											{
												"patchline" : 												{
													"destination" : [ "obj-84", 0 ],
													"disabled" : 0,
													"hidden" : 0,
													"source" : [ "obj-83", 0 ]
												}

											}
, 											{
												"patchline" : 												{
													"destination" : [ "obj-103", 0 ],
													"disabled" : 0,
													"hidden" : 0,
													"source" : [ "obj-84", 0 ]
												}

											}
, 											{
												"patchline" : 												{
													"destination" : [ "obj-116", 0 ],
													"disabled" : 0,
													"hidden" : 0,
													"source" : [ "obj-84", 0 ]
												}

											}
, 											{
												"patchline" : 												{
													"destination" : [ "obj-93", 1 ],
													"disabled" : 0,
													"hidden" : 0,
													"source" : [ "obj-84", 0 ]
												}

											}
, 											{
												"patchline" : 												{
													"destination" : [ "obj-93", 0 ],
													"disabled" : 0,
													"hidden" : 0,
													"source" : [ "obj-84", 0 ]
												}

											}
, 											{
												"patchline" : 												{
													"destination" : [ "obj-86", 0 ],
													"disabled" : 0,
													"hidden" : 0,
													"source" : [ "obj-85", 0 ]
												}

											}
, 											{
												"patchline" : 												{
													"destination" : [ "obj-87", 1 ],
													"disabled" : 0,
													"hidden" : 0,
													"source" : [ "obj-86", 0 ]
												}

											}
, 											{
												"patchline" : 												{
													"destination" : [ "obj-100", 0 ],
													"disabled" : 0,
													"hidden" : 0,
													"source" : [ "obj-87", 0 ]
												}

											}
, 											{
												"patchline" : 												{
													"destination" : [ "obj-111", 0 ],
													"disabled" : 0,
													"hidden" : 0,
													"source" : [ "obj-87", 0 ]
												}

											}
, 											{
												"patchline" : 												{
													"destination" : [ "obj-92", 1 ],
													"disabled" : 0,
													"hidden" : 0,
													"source" : [ "obj-87", 0 ]
												}

											}
, 											{
												"patchline" : 												{
													"destination" : [ "obj-92", 0 ],
													"disabled" : 0,
													"hidden" : 0,
													"source" : [ "obj-87", 0 ]
												}

											}
, 											{
												"patchline" : 												{
													"destination" : [ "obj-94", 0 ],
													"disabled" : 0,
													"hidden" : 0,
													"source" : [ "obj-92", 0 ]
												}

											}
, 											{
												"patchline" : 												{
													"destination" : [ "obj-94", 1 ],
													"disabled" : 0,
													"hidden" : 0,
													"source" : [ "obj-93", 0 ]
												}

											}
, 											{
												"patchline" : 												{
													"destination" : [ "obj-95", 0 ],
													"disabled" : 0,
													"hidden" : 0,
													"source" : [ "obj-94", 0 ]
												}

											}
, 											{
												"patchline" : 												{
													"destination" : [ "obj-96", 0 ],
													"disabled" : 0,
													"hidden" : 0,
													"source" : [ "obj-95", 0 ]
												}

											}
, 											{
												"patchline" : 												{
													"destination" : [ "obj-97", 0 ],
													"disabled" : 0,
													"hidden" : 0,
													"source" : [ "obj-96", 0 ]
												}

											}
, 											{
												"patchline" : 												{
													"destination" : [ "obj-119", 0 ],
													"disabled" : 0,
													"hidden" : 0,
													"source" : [ "obj-97", 0 ]
												}

											}
, 											{
												"patchline" : 												{
													"destination" : [ "obj-97", 1 ],
													"disabled" : 0,
													"hidden" : 0,
													"source" : [ "obj-99", 0 ]
												}

											}
 ]
									}
,
									"patching_rect" : [ 75.0, 180.0, 157.0, 20.0 ],
									"text" : "gen @title SimplexNoise2D"
								}

							}
 ],
						"lines" : [ 							{
								"patchline" : 								{
									"destination" : [ "obj-126", 0 ],
									"disabled" : 0,
									"hidden" : 0,
									"source" : [ "obj-1", 0 ]
								}

							}
, 							{
								"patchline" : 								{
									"destination" : [ "obj-128", 0 ],
									"disabled" : 0,
									"hidden" : 0,
									"source" : [ "obj-124", 0 ]
								}

							}
, 							{
								"patchline" : 								{
									"destination" : [ "obj-129", 0 ],
									"disabled" : 0,
									"hidden" : 0,
									"source" : [ "obj-125", 0 ]
								}

							}
, 							{
								"patchline" : 								{
									"destination" : [ "obj-1", 2 ],
									"disabled" : 0,
									"hidden" : 0,
									"source" : [ "obj-127", 0 ]
								}

							}
, 							{
								"patchline" : 								{
									"destination" : [ "obj-1", 1 ],
									"disabled" : 0,
									"hidden" : 0,
									"source" : [ "obj-127", 0 ]
								}

							}
, 							{
								"patchline" : 								{
									"destination" : [ "obj-1", 0 ],
									"disabled" : 0,
									"hidden" : 0,
									"source" : [ "obj-127", 0 ]
								}

							}
, 							{
								"patchline" : 								{
									"destination" : [ "obj-127", 0 ],
									"disabled" : 0,
									"hidden" : 0,
									"source" : [ "obj-128", 0 ]
								}

							}
, 							{
								"patchline" : 								{
									"destination" : [ "obj-124", 0 ],
									"disabled" : 0,
									"hidden" : 0,
									"source" : [ "obj-129", 0 ]
								}

							}
 ]
					}
,
					"patching_rect" : [ 360.0, 195.0, 157.0, 20.0 ],
					"text" : "jit.gl.pix @t simplexnoise2D"
				}

			}
, 			{
				"box" : 				{
					"bubble" : 1,
					"fontname" : "Arial",
					"fontsize" : 12.0,
					"frgb" : 0.0,
					"id" : "obj-18",
					"maxclass" : "comment",
					"numinlets" : 1,
					"numoutlets" : 0,
					"patching_rect" : [ 555.0, 147.0, 150.0, 24.0 ],
					"text" : "export to WebGL (v6.1)"
				}

			}
, 			{
				"box" : 				{
					"fontname" : "Arial",
					"fontsize" : 12.0,
					"id" : "obj-3",
					"maxclass" : "message",
					"numinlets" : 2,
					"numoutlets" : 1,
					"outlettype" : [ "" ],
					"patching_rect" : [ 420.5, 150.0, 110.0, 18.0 ],
					"text" : "exportcode webjxs"
				}

			}
, 			{
				"box" : 				{
					"fontname" : "Arial",
					"fontsize" : 12.0,
					"id" : "obj-41",
					"maxclass" : "newobj",
					"numinlets" : 0,
					"numoutlets" : 1,
					"outlettype" : [ "" ],
					"patching_rect" : [ 362.5, 75.0, 49.0, 20.0 ],
					"text" : "r metro"
				}

			}
, 			{
				"box" : 				{
					"fontname" : "Arial",
					"fontsize" : 12.0,
					"id" : "obj-37",
					"maxclass" : "newobj",
					"numinlets" : 1,
					"numoutlets" : 2,
					"outlettype" : [ "jit_matrix", "" ],
					"patching_rect" : [ 360.0, 105.0, 179.0, 20.0 ],
					"text" : "jit.matrix buffer 4 char 1024 768"
				}

			}
, 			{
				"box" : 				{
					"fontname" : "Arial",
					"fontsize" : 12.0,
					"id" : "obj-34",
					"maxclass" : "newobj",
					"numinlets" : 1,
					"numoutlets" : 2,
					"outlettype" : [ "jit_matrix", "" ],
					"patching_rect" : [ 360.0, 225.0, 231.0, 20.0 ],
					"text" : "jit.gl.videoplane glctx @transform_reset 2"
				}

			}
, 			{
				"box" : 				{
					"fontname" : "Arial",
					"fontsize" : 12.0,
					"id" : "obj-40",
					"maxclass" : "jit.fpsgui",
					"numinlets" : 1,
					"numoutlets" : 2,
					"outlettype" : [ "", "" ],
					"patching_rect" : [ 30.0, 135.0, 80.0, 35.0 ]
				}

			}
, 			{
				"box" : 				{
					"fontname" : "Arial",
					"fontsize" : 12.0,
					"id" : "obj-55",
					"maxclass" : "newobj",
					"numinlets" : 1,
					"numoutlets" : 0,
					"patching_rect" : [ 150.0, 105.0, 51.0, 20.0 ],
					"text" : "s metro"
				}

			}
, 			{
				"box" : 				{
					"fontname" : "Arial",
					"fontsize" : 13.0,
					"id" : "obj-10",
					"maxclass" : "newobj",
					"numinlets" : 1,
					"numoutlets" : 2,
					"outlettype" : [ "bang", "" ],
					"patching_rect" : [ 120.0, 225.0, 195.0, 21.0 ],
					"text" : "jit.window glctx @size 1024 768"
				}

			}
, 			{
				"box" : 				{
					"fontname" : "Arial",
					"fontsize" : 13.0,
					"id" : "obj-9",
					"maxclass" : "newobj",
					"numinlets" : 1,
					"numoutlets" : 2,
					"outlettype" : [ "bang", "" ],
					"patching_rect" : [ 120.0, 180.0, 209.0, 21.0 ],
					"text" : "jit.gl.render glctx @camera 0 0 -15"
				}

			}
, 			{
				"box" : 				{
					"fontname" : "Arial",
					"fontsize" : 13.0,
					"id" : "obj-8",
					"maxclass" : "newobj",
					"numinlets" : 1,
					"numoutlets" : 2,
					"outlettype" : [ "bang", "erase" ],
					"patching_rect" : [ 120.0, 135.0, 74.0, 21.0 ],
					"text" : "t b erase"
				}

			}
, 			{
				"box" : 				{
					"id" : "obj-7",
					"maxclass" : "toggle",
					"numinlets" : 1,
					"numoutlets" : 1,
					"outlettype" : [ "int" ],
					"parameter_enable" : 0,
					"patching_rect" : [ 120.0, 35.0, 20.0, 20.0 ]
				}

			}
, 			{
				"box" : 				{
					"fontname" : "Arial",
					"fontsize" : 13.0,
					"id" : "obj-5",
					"maxclass" : "newobj",
					"numinlets" : 2,
					"numoutlets" : 1,
					"outlettype" : [ "bang" ],
					"patching_rect" : [ 120.0, 60.0, 145.0, 21.0 ],
					"text" : "qmetro @interval 60 hz"
				}

			}
, 			{
				"box" : 				{
					"background" : 1,
					"bgcolor" : [ 1.0, 0.788235, 0.470588, 1.0 ],
					"border" : 0,
					"bordercolor" : [ 0.0, 0.0, 0.0, 1.0 ],
					"fontname" : "Arial Bold",
					"fontsize" : 13.0,
					"hint" : "",
					"id" : "obj-93",
					"ignoreclick" : 1,
					"maxclass" : "textbutton",
					"numinlets" : 1,
					"numoutlets" : 3,
					"outlettype" : [ "", "", "int" ],
					"parameter_enable" : 0,
					"patching_rect" : [ 145.0, 35.0, 20.0, 20.0 ],
					"rounded" : 60.0,
					"text" : "1",
					"textcolor" : [ 0.34902, 0.34902, 0.34902, 1.0 ],
					"textovercolor" : [ 0.2, 0.2, 0.2, 1.0 ]
				}

			}
 ],
		"lines" : [ 			{
				"patchline" : 				{
					"destination" : [ "obj-34", 0 ],
					"disabled" : 0,
					"hidden" : 0,
					"source" : [ "obj-15", 0 ]
				}

			}
, 			{
				"patchline" : 				{
					"destination" : [ "obj-15", 0 ],
					"disabled" : 0,
					"hidden" : 0,
					"source" : [ "obj-3", 0 ]
				}

			}
, 			{
				"patchline" : 				{
					"destination" : [ "obj-15", 0 ],
					"disabled" : 0,
					"hidden" : 0,
					"source" : [ "obj-37", 0 ]
				}

			}
, 			{
				"patchline" : 				{
					"destination" : [ "obj-37", 0 ],
					"disabled" : 0,
					"hidden" : 0,
					"source" : [ "obj-41", 0 ]
				}

			}
, 			{
				"patchline" : 				{
					"destination" : [ "obj-40", 0 ],
					"disabled" : 0,
					"hidden" : 0,
					"source" : [ "obj-5", 0 ]
				}

			}
, 			{
				"patchline" : 				{
					"destination" : [ "obj-55", 0 ],
					"disabled" : 0,
					"hidden" : 0,
					"source" : [ "obj-5", 0 ]
				}

			}
, 			{
				"patchline" : 				{
					"destination" : [ "obj-8", 0 ],
					"disabled" : 0,
					"hidden" : 0,
					"source" : [ "obj-5", 0 ]
				}

			}
, 			{
				"patchline" : 				{
					"destination" : [ "obj-5", 0 ],
					"disabled" : 0,
					"hidden" : 0,
					"source" : [ "obj-7", 0 ]
				}

			}
, 			{
				"patchline" : 				{
					"destination" : [ "obj-9", 0 ],
					"disabled" : 0,
					"hidden" : 0,
					"source" : [ "obj-8", 1 ]
				}

			}
, 			{
				"patchline" : 				{
					"destination" : [ "obj-9", 0 ],
					"disabled" : 0,
					"hidden" : 0,
					"source" : [ "obj-8", 0 ]
				}

			}
 ],
		"dependency_cache" : [  ]
	}

}
